<?xml version="1.0" standalone="no"?>
<!DOCTYPE svg PUBLIC "-//W3C//DTD SVG 20010904//EN"
 "http://www.w3.org/TR/2001/REC-SVG-20010904/DTD/svg10.dtd">
<svg version="1.0" xmlns="http://www.w3.org/2000/svg"
 width="16.000000pt" height="16.000000pt" viewBox="0 0 16.000000 16.000000"
 preserveAspectRatio="xMidYMid meet">
<metadata>
Created by potrace 1.11, written by Peter Selinger 2001-2013
</metadata>
<g transform="translate(0.000000,16.000000) scale(0.006400,-0.006400)"
fill="#000000" stroke="none">
<path d="M1128 2488 c-17 -14 -44 -85 -40 -105 2 -7 -3 -13 -9 -13 -7 0 -9 -3
-6 -6 16 -17 -53 -79 -80 -72 -12 3 -97 -23 -109 -33 -6 -5 -14 -6 -18 -2 -4
4 -10 2 -14 -4 -4 -6 -19 -14 -33 -18 -24 -6 -68 20 -121 71 -9 8 -34 18 -55
21 -32 4 -45 0 -85 -31 -26 -20 -49 -36 -52 -36 -2 0 -20 -16 -40 -35 -27 -26
-36 -43 -36 -68 0 -34 13 -84 32 -123 12 -26 2 -64 -23 -82 -11 -7 -19 -19
-19 -25 0 -7 -9 -19 -20 -27 -11 -8 -20 -18 -20 -22 0 -5 -15 -30 -34 -56
l-35 -47 -83 -1 c-46 0 -90 -3 -98 -5 -18 -5 -56 -81 -65 -131 -4 -21 -11 -38
-15 -38 -15 0 -4 -107 13 -124 9 -9 18 -15 19 -14 2 2 24 -12 50 -31 46 -33
77 -84 57 -96 -11 -7 -11 -131 0 -160 8 -20 -8 -75 -22 -75 -10 0 -71 -42 -75
-52 -2 -5 -8 -8 -14 -8 -21 0 -33 -27 -34 -77 0 -29 4 -53 9 -53 5 0 7 -9 4
-20 -3 -11 -2 -20 3 -20 4 0 13 -21 19 -47 19 -73 44 -89 146 -88 85 1 85 1
111 -32 14 -18 21 -33 17 -33 -4 0 0 -5 10 -11 9 -5 17 -15 17 -21 0 -11 4
-16 56 -73 29 -31 39 -72 23 -92 -6 -7 -8 -16 -5 -22 3 -5 1 -11 -4 -13 -6 -2
-14 -28 -17 -59 -5 -54 -4 -57 30 -93 19 -20 38 -36 42 -36 3 0 27 -16 53 -36
41 -31 52 -35 87 -31 23 4 47 14 57 26 9 12 19 21 23 21 4 0 21 12 38 26 31
26 73 27 88 2 4 -6 11 -8 17 -4 6 3 13 2 16 -3 3 -5 30 -15 58 -22 29 -7 55
-14 58 -14 34 -9 62 -30 75 -58 9 -19 15 -38 14 -43 -1 -5 3 -22 9 -37 7 -16
12 -32 12 -36 0 -5 7 -14 15 -21 18 -15 229 -20 258 -5 18 9 64 115 50 115 -3
0 0 7 7 15 7 9 10 18 6 22 -8 8 45 44 56 37 4 -3 8 0 8 7 0 7 10 9 25 7 14 -3
25 -2 25 2 0 4 21 13 48 20 60 17 53 14 84 30 24 11 31 10 54 -6 15 -10 34
-23 43 -29 9 -5 23 -18 33 -28 9 -10 34 -21 55 -24 32 -4 45 0 85 31 26 20 50
36 54 36 4 0 22 17 42 37 33 35 34 40 29 91 -3 29 -10 59 -15 65 -6 7 -11 15
-11 20 -1 4 -2 10 -3 15 -6 31 0 59 17 78 49 53 65 72 65 78 0 3 16 28 35 54
l34 48 92 -1 91 -1 24 38 c13 21 24 43 24 50 0 7 6 24 13 38 29 59 18 181 -18
190 -5 1 -29 15 -51 31 -42 28 -72 83 -53 94 11 8 12 155 1 155 -12 0 -8 30 6
56 6 12 35 37 64 55 29 18 57 38 61 44 12 15 4 137 -10 165 -7 14 -13 32 -13
40 0 9 -7 26 -16 38 -8 12 -12 22 -7 22 4 1 -5 6 -20 13 -16 7 -65 12 -108 11
l-80 -1 -34 49 c-19 26 -35 51 -35 54 0 4 -10 15 -22 25 -11 11 -17 19 -13 19
4 0 -6 13 -23 30 -31 29 -38 62 -19 87 5 7 6 16 3 22 -3 5 -1 11 4 13 6 2 14
29 17 60 5 54 5 57 -31 91 -20 19 -36 33 -36 31 0 -2 -23 14 -52 37 -46 36
-57 40 -92 36 -21 -3 -42 -9 -45 -14 -3 -5 -28 -25 -56 -44 -50 -36 -90 -44
-105 -20 -4 7 -10 12 -14 12 -13 -2 -97 22 -101 29 -3 5 -14 6 -25 3 -12 -3
-20 0 -20 7 0 7 -6 10 -14 7 -20 -8 -71 62 -65 89 2 9 -15 58 -30 84 -11 20
-248 27 -273 8z m267 -398 c0 -1 8 -3 19 -5 59 -11 117 -28 121 -36 3 -4 12
-6 20 -2 8 3 15 1 15 -5 0 -5 21 -15 46 -22 25 -7 48 -19 51 -27 3 -7 11 -13
18 -13 8 0 34 -16 59 -35 26 -19 48 -35 51 -35 9 0 120 -119 153 -164 18 -25
37 -57 42 -71 5 -14 14 -25 20 -25 5 0 10 -5 10 -10 0 -6 7 -27 17 -48 9 -20
15 -42 14 -49 -1 -6 3 -14 8 -18 6 -3 8 -12 4 -20 -3 -8 -1 -15 5 -15 16 0 34
-117 34 -230 1 -110 -17 -240 -34 -240 -5 0 -7 -4 -4 -9 7 -11 -45 -144 -61
-154 -7 -4 -13 -15 -13 -23 0 -23 -65 -84 -88 -84 -12 0 -23 -3 -25 -8 -3 -4
-49 -7 -104 -7 -91 1 -100 -1 -123 -24 -32 -32 -46 -75 -44 -128 2 -36 -3 -48
-36 -86 -29 -33 -52 -48 -87 -57 -27 -7 -54 -12 -61 -11 -8 1 -19 -2 -25 -7
-14 -10 -254 -9 -278 2 -9 4 -20 6 -25 5 -5 -1 -30 4 -57 11 -56 15 -131 83
-124 112 3 10 1 21 -4 24 -5 3 -9 22 -9 42 0 96 -34 120 -163 118 -49 -1 -91
2 -93 6 -3 5 -14 8 -24 8 -24 0 -77 45 -86 73 -3 12 -12 29 -19 37 -7 8 -21
35 -30 60 -9 25 -21 54 -26 65 -10 21 -11 24 -31 120 -20 95 -11 336 13 351 5
3 7 10 4 15 -6 9 5 38 48 129 11 25 20 48 19 53 -1 4 2 7 8 7 5 0 10 6 10 13
0 7 22 41 50 75 27 34 48 62 45 62 -3 0 12 17 33 38 20 21 39 37 41 36 2 -2
23 13 46 34 23 20 55 44 71 52 16 8 31 17 34 20 3 3 25 14 50 25 25 11 48 23
51 28 3 5 9 8 13 8 14 -2 96 22 96 28 0 4 14 6 30 5 17 -1 32 1 34 5 4 6 271
7 271 1z"/>
<path d="M790 1741 c0 -5 -9 -7 -20 -4 -12 3 -20 0 -20 -6 0 -7 -4 -10 -9 -7
-10 7 -111 -81 -111 -96 0 -6 -7 -16 -17 -23 -12 -9 -17 -33 -21 -93 -4 -69
-1 -87 18 -126 23 -48 116 -140 131 -130 5 3 9 0 9 -7 0 -6 8 -9 20 -6 11 3
20 1 20 -4 0 -12 167 -12 175 1 3 5 12 7 20 3 8 -3 15 0 15 7 0 6 5 8 10 5 18
-11 136 118 143 155 9 42 9 118 0 160 -6 33 -121 163 -140 159 -4 -1 -21 3
-36 9 -33 14 -187 16 -187 3z"/>
<path d="M1560 1742 c0 -6 -9 -8 -20 -5 -12 3 -20 0 -20 -6 0 -7 -5 -9 -10 -6
-6 4 -39 -23 -74 -58 -57 -58 -65 -72 -73 -119 -13 -78 1 -151 40 -203 32 -43
94 -92 109 -87 4 1 8 -3 8 -9 0 -6 9 -9 20 -6 11 3 20 1 20 -5 0 -15 202 -6
208 10 2 7 8 9 13 6 14 -8 142 125 135 142 -3 7 -1 16 4 19 20 12 11 135 -12
182 -24 49 -99 123 -123 123 -8 0 -15 4 -15 8 0 11 -9 13 -117 19 -57 3 -93 1
-93 -5z"/>
<path d="M1210 1198 c0 -5 -11 -13 -25 -18 -14 -5 -25 -15 -25 -21 0 -7 -7
-20 -16 -30 -8 -9 -17 -23 -18 -31 -2 -7 -7 -22 -12 -33 -5 -11 -9 -60 -9
-109 0 -69 3 -90 15 -96 8 -4 26 -13 40 -20 17 -9 25 -10 28 -1 5 14 126 15
153 1 13 -7 19 -7 19 0 0 5 8 10 19 10 10 0 24 6 30 14 21 25 13 198 -10 212
-5 3 -7 10 -4 15 3 5 -3 19 -14 31 -12 12 -21 28 -21 35 0 7 -4 13 -8 13 -5 0
-17 8 -28 18 -20 18 -114 26 -114 10z"/>
</g>
</svg>
